<?xml version="1.0" standalone="no"?>
<!DOCTYPE svg PUBLIC "-//W3C//DTD SVG 20010904//EN"
 "http://www.w3.org/TR/2001/REC-SVG-20010904/DTD/svg10.dtd">
<svg version="1.0" xmlns="http://www.w3.org/2000/svg"
 width="512.000000pt" height="512.000000pt" viewBox="0 0 512.000000 512.000000"
 preserveAspectRatio="xMidYMid meet">

<g transform="translate(0.000000,512.000000) scale(0.100000,-0.100000)"
fill="#000000" stroke="none">
<path d="M383 4386 c-161 -39 -292 -157 -355 -321 l-23 -60 0 -1690 c0 -1611
1 -1693 18 -1750 52 -168 181 -302 346 -357 l66 -23 2177 -3 2177 -2 24 22 25
23 4 538 4 537 -435 0 c-480 0 -508 3 -624 61 -38 20 -89 59 -133 103 -297
298 -173 780 236 912 48 15 108 18 503 22 l447 4 0 524 c0 511 -1 525 -20 544
-19 19 -33 20 -230 20 l-210 0 0 430 0 431 -25 24 -24 25 -563 0 -563 0 448
-448 c246 -246 447 -450 447 -455 0 -4 -93 -7 -207 -7 l-207 0 -101 100 -102
100 -848 0 -849 0 -101 -100 -102 -100 -219 0 -219 0 93 93 c50 51 92 96 92
100 0 4 -125 7 -277 7 l-278 0 355 355 355 355 -525 -1 c-383 0 -539 -4 -577
-13z"/>
</g>
</svg>
